# xmcd
#
# Track frame offsets:
#	150
#	14274
#	39611
#	55826
#	70776
#	87698
#	98500
#	117462
#	137157
#	152426
#	172285
#	185353
#
# Disc length: 2624 seconds
#
# Revision: 1
# Processed by: cddbd v1.4PL0 Copyright (c) Steve Scherf et al.
# Submitted via: EasyCDDAExtractor 5.0.6
#
DISCID=a10a3e0c
DTITLE=Edith Piaf - La Vie En Rose
DYEAR=1998
DGENRE=Chanson
TTITLE0=La Vie En Rose
TTITLE1=Dans Ma Rue
TTITLE2=Elle Frequentait La Rue Pigalle
TTITLE3=Je N'en Connia Pas La Fin
TTITLE4=Le Grand Voyage Du Pauvre Negre
TTITLE5=Tout Fout Le Camp
TTITLE6=Les Trois Cloches
TTITLE7=J'm'en Fous Pas Mal
TTITLE8=D'l'autre Cote D'la Rue
TTITLE9=C'etait Une Histoire D'amour
TTITLE10=Y'en A Un De Trop
TTITLE11=C'est Toi Le Plus Fort
EXTD=
EXTT0=
EXTT1=
EXTT2=
EXTT3=
EXTT4=
EXTT5=
EXTT6=
EXTT7=
EXTT8=
EXTT9=
EXTT10=
EXTT11=
PLAYORDER=
